# xmcd CD database file
#
# Track frame offsets:
#	150
#	2360
#	26535
#	42463
#	75789
#	100895
#	105037
#	129868
#	159275
#	198449
#	219470
#	222436
#	248547
#	252466
#	286177
#
# Disc length: 4057 seconds
#
# Revision: 0
# Processed by: cddbd v1.5.2PL0 Copyright (c) Steve Scherf et al.
# Submitted via: CDex 1.70beta2
#
DISCID=b10fd70f
DTITLE=Vinny Golia - Music For Like Instruments - The Flutes
DYEAR=2005
DGENRE=Jazz
TTITLE0=Lonely Micheal (The Last Of The Wasabi Series)
TTITLE1=An Alternative To Oregnum
TTITLE2=On The Train
TTITLE3=Dr. Lubbeck Pays A Visit, So Sam Phones Some Friends
TTITLE4=Poece (Solo Statements-Fawntice, Jennifer, Ellen, Vinny)
TTITLE5=Wasabi-One
TTITLE6=Six-Ninety (Duos-Ellen, Fawntice-Vinny and Jennifer)
TTITLE7=Aquarina
TTITLE8=The Machinery Of History (Solos-Ellen and Vinny)
TTITLE9=The Everyday Phone Call - For Bobby Bradford (Duos-Jen, Fawntice-Vinny, Ellen)
TTITLE10=Wasabi-Two
TTITLE11=Red Dirt
TTITLE12=Wasabi-Three
TTITLE13=Da A
TTITLE14=Xenomorph
EXTD=YEAR: 2005
EXTT0=
EXTT1=
EXTT2=
EXTT3=
EXTT4=
EXTT5=
EXTT6=
EXTT7=
EXTT8=
EXTT9=
EXTT10=
EXTT11=
EXTT12=
EXTT13=
EXTT14=
PLAYORDER=
